<?xml version="1.0" encoding="UTF-8"?>
<svg id="Layer_1" data-name="Layer 1" xmlns="http://www.w3.org/2000/svg" viewBox="0 0 477.24 403.32">
  <defs>
    <style>
      .cls-1 {
        stroke-width: 10.09px;
      }

      .cls-1, .cls-2, .cls-3, .cls-4, .cls-5, .cls-6, .cls-7, .cls-8 {
        fill: none;
        stroke: #00674f;
        stroke-miterlimit: 10;
      }

      .cls-2 {
        stroke-width: 10.18px;
      }

      .cls-3 {
        stroke-width: 10.16px;
      }

      .cls-4 {
        stroke-width: 10.04px;
      }

      .cls-5 {
        stroke-width: 7.61px;
      }

      .cls-6 {
        stroke-width: 7.27px;
      }

      .cls-7 {
        stroke-width: 7.28px;
      }

      .cls-8 {
        stroke-width: 7.58px;
      }
    </style>
  </defs>
  <path class="cls-2" d="M418.05,358.92h-133.02l.73,18.17h-94.5l-.73-18.17-134.75-.17-46.24-.06s-10.02,6.5,0,24.22c9.45,16.72,26.17,14.54,26.17,14.54l340.91.73s71.24,1.45,86.5-9.45c16.73-11.95,5.09-29.8,5.09-29.8h-46.52s2.18-185.36.73-214.43c-1.45-29.08-18.74-26.17-18.74-26.17h-40.87"/>
  <polygon class="cls-3" points="171.88 169 172.57 334.93 78.59 334.93 78.59 143.76 171.78 143.76 171.88 169"/>
  <polygon class="cls-4" points="262.5 143.76 262.5 334.93 200.46 334.93 199.59 169 199.45 143.76 262.5 143.76"/>
  <rect class="cls-1" x="294.48" y="143.76" width="103.95" height="191.17"/>
  <line class="cls-2" x1="263.95" y1="118.58" x2="199.32" y2="118.74"/>
  <path class="cls-2" d="M171.68,118.81l-94.54.23s-23.26,0-23.26,18.9c0,24.21,1.83,213.02,1.9,220.8v.25"/>
  <line class="cls-2" x1="367.18" y1="118.32" x2="293.03" y2="118.51"/>
  <polygon class="cls-7" points="200.48 336.39 172.57 336.39 171.88 169.2 171.78 143.76 199.45 143.76 199.59 169.2 200.48 336.39"/>
  <line class="cls-6" x1="200.49" y1="337.87" x2="200.48" y2="335.66"/>
  <polygon class="cls-6" points="199.45 142.31 171.78 142.31 171.68 117.36 171.64 105.96 199.26 105.96 199.32 117.29 199.45 142.31"/>
  <line class="cls-6" x1="172.57" y1="336.08" x2="172.57" y2="335.66"/>
  <line class="cls-6" x1="171.88" y1="169.1" x2="171.37" y2="169.1"/>
  <path class="cls-6" d="M200.71,101.6s20.35-13.08,20.35-31.98c0-18.9-13.08-20.35-11.63-36.34s21.81-21.81,2.91-21.81-34.89,11.63-42.16,21.81c-13.63,19.08-11.63,36.34-11.63,36.34,0,0-1.45,27.62,11.63,33.44,13.08,5.82,30.53-1.45,30.53-1.45Z"/>
  <rect class="cls-5" x="263.95" y="98.69" width="29.08" height="237.69"/>
  <line class="cls-8" x1="293.03" y1="337.36" x2="293.03" y2="335.66"/>
  <line class="cls-8" x1="263.95" y1="337.36" x2="263.95" y2="335.66"/>
  <polyline class="cls-6" points="263.95 100.15 248.69 66.71 271.95 17.28 270.49 69.62 285.96 69.99 284.51 17.66 307.77 67.09 292.5 100.52"/>
</svg>